#!OML:ASF F:\VICON\USERDATA\INSTALL\rory3\rory3.ASF
:FULLY-SPECIFIED
:DEGREES
118
root 0.6955186263523758 17.8727632660984 35.05119586098186 -2.7701961782782716 -2.8769870041978725 -2.179608706196765
lfemur 2.963684952393976 -1.5723137128166913 -18.830522658816133
ltibia 47.044283744007394
lfoot -14.115669725697163 -1.2856785801657493
ltoes -8.090307226796721
rfemur -9.860860920514018 4.57124107391254 25.387284331755158
rtibia 41.078208559198366
rfoot -19.304404525602997 -8.357592066295393
rtoes -0.43416335801532746
lowerback 9.403270273118713 -0.1878837906862586 1.098933414548399
upperback 0.10814449504656834 -0.12348283665457649 1.5586489296200468
thorax -5.480662099786427 -0.03176769153797493 1.6236578881490873
lowerneck -16.450707456385224 -2.971294264580617 -1.545776638657452
upperneck 21.384591859187164 -3.8035639873535834 0.38359161759851695
head 9.552537239022135 -1.8636539023688992 -0.13080702467785144
lclavicle -3.6163629442270737e-16 5.803562888372392e-16
lhumerus -25.823842696553868 2.463626269949502 79.70653104295315
lradius 26.555686810920978
lwrist 7.206224774069676
lhand -28.045633876195986 19.505929892846375
lfingers 7.12502
lthumb -1.3982392081155457 49.81681281513613
rclavicle -3.6163629434294885e-16 5.803562888910886e-16
rhumerus -27.507591832615955 -15.834494554014483 -77.84191750641943
rradius 32.74270751461538
rwrist 2.085516234576434
rhand -17.857042702830903 21.42658252900361
rfingers 7.12502
rthumb 8.9707816511049 -6.912433940708984
119
root 0.7010684896459808 17.89773936184777 34.8029817682539 -2.5311365562200767 -2.8780165103134143 -2.5289855493488473
lfemur 2.87485571729494 -1.6138585539494854 -18.539879314258112
ltibia 47.0299662865244
lfoot -14.115002409012284 -0.9647267965644273
ltoes -9.780707442181992
rfemur -9.387388588932325 4.653105165545541 25.82850593044375
rtibia 39.30899176093544
rfoot -19.604775968594026 -8.604054535443954
rtoes -0.6968507221353013
lowerback 9.31008857161072 -0.23638621014828587 1.401252843120495
upperback -0.00938811873428555 -0.10412597636325549 1.6771553118764124
thorax -5.563467100167965 -0.03558266076974431 1.6008642580703147
lowerneck -16.375241947466563 -2.95335255029724 -1.5527209626861178
upperneck 21.50861507729297 -3.7654602129167483 0.2848335735247583
head 9.588285624961726 -1.8483822096271472 -0.1583755560895915
lclavicle -3.616362944227082e-16 5.803562888373224e-16
lhumerus -25.53210763562185 3.0553537007738023 79.91729805267724
lradius 26.647922870601178
lwrist 7.339050123346109
lhand -27.80730520734902 20.233207922630815
lfingers 7.12502
lthumb -1.0789746085623118 50.6966420875326
rclavicle -3.6163629434067067e-16 5.803562888926402e-16
rhumerus -27.722953030504655 -15.874316413269081 -77.28493516259684
rradius 32.72231600342259
rwrist 1.9657448977092586
rhand -17.870116719786292 21.5742054855054
rfingers 7.12502
rthumb 8.859058455086304 -6.832726099147876
120
root 0.7143834350944649 17.922300697804594 34.35930976716536 -2.3087221746239877 -2.8726188495635148 -2.9634711503944775
lfemur 2.3972380658921573 -1.6500105918818304 -18.198556097960818
ltibia 47.26703883985449
lfoot -14.144794166903235 -0.795596006740996
ltoes -10.46313587365637
rfemur -8.660783360796323 4.8480313803567245 26.407526126861168
rtibia 37.396806013900594
rfoot -19.86858825481766 -8.921955629235375
rtoes -1.8784106880176967
lowerback 9.214628081801227 -0.27674616561112486 1.7676272612366262
upperback -0.08055078980823832 -0.075827276566515 1.7833019498381562
thorax -5.567623659887469 -0.027573691832935066 1.6135676647367552
lowerneck -16.32373221233773 -2.9327700038951647 -1.5524294476524911
upperneck 21.664609209851793 -3.7253570306858403 0.16234741161400118
head 9.62578519064781 -1.8362505790845378 -0.20132021558522786
lclavicle -3.616362944194907e-16 5.803562888394632e-16
lhumerus -26.365202491901144 2.5678959617840613 79.83046266363206
lradius 26.669045508760703
lwrist 7.7379748870854765
lhand -27.617981936772644 20.405047545796215
lfingers 7.12502
lthumb -0.8279117832461274 50.891236418855705
rclavicle -3.6163629434142615e-16 5.803562888920898e-16
rhumerus -27.84171083114076 -16.002827930871796 -76.9120334129942
rradius 32.74837618326815
rwrist 2.0226728409786174
rhand -17.900691600608734 21.700123231003136
rfingers 7.12502
rthumb 8.806868732356358 -6.514786129761727
121
root 0.7227405865474439 17.94518415316346 34.070296863813354 -2.0853858567927808 -2.8864095209956964 -3.3772958342486463
lfemur 2.3110426221692144 -1.771137443534539 -17.876565499245586
ltibia 47.21532159414585
lfoot -14.207368974549524 -0.660363411838865
ltoes -10.509677979733635
rfemur -7.704896788044182 5.1191676318536725 27.041551954462385
rtibia 35.51916941538607
rfoot -19.919418983890267 -9.121519025113608
rtoes -3.8561070571407043
lowerback 9.104849083267295 -0.27697644753416484 2.164083091775235
upperback -0.1384764738454914 0.02380278750962672 1.8553734412883758
thorax -5.5887125743883965 -0.009487221609729923 1.5165172081661464
lowerneck -16.279685559574954 -2.9135361642783906 -1.5643619299631366
upperneck 21.895041398664258 -3.6863703358468225 0.044043369060281945
head 9.702997475677673 -1.8234207629584007 -0.2357078775151483
lclavicle -3.6163629441777916e-16 5.803562888405805e-16
lhumerus -26.559997129169258 2.7639330770166923 79.9372486040072
lradius 26.628047881688783
lwrist 7.827356382382538
lhand -27.428895326836187 20.41178925213434
lfingers 7.12502
lthumb -0.6647363404483144 50.764105828338074
rclavicle -3.616362943308642e-16 5.803562888991477e-16
rhumerus -27.887293129924014 -15.931976862749268 -76.62274720081221
rradius 32.74836525598919
rwrist 1.5781311531073778
rhand -17.943707676419713 21.803638306644167
rfingers 7.12502
rthumb 8.69910996645051 -6.263453567133819
122
root 0.7373535333441344 17.95759518913375 34.02241496556544 -2.0571628138607845 -2.960193257758303 -3.457460096100646
lfemur 2.1943660242568512 -1.9124024053247122 -17.926053258758056
ltibia 47.2712379687428
lfoot -14.332291201040595 -0.5906311974376273
ltoes -13.397844669791496
rfemur -6.900607983671994 5.342951456387538 27.34558179378724
rtibia 34.117896745343856
rfoot -19.69030041684075 -9.25019680696797
rtoes -4.863417436929828
lowerback 8.94975287723768 -0.21650737446173918 2.383088466970926
upperback -0.15199327214285885 0.12285689281063683 1.9080326839072708
thorax -5.5121961512301105 0.04903357173654216 1.4736609557004172
lowerneck -16.28371477038596 -2.8942981575865354 -1.5394143024786817
upperneck 22.150834092260126 -3.65155940022882 -0.017686843842948163
head 9.827730673270649 -1.8062322541418636 -0.2547092500995302
lclavicle -3.616362944188259e-16 5.803562888399574e-16
lhumerus -27.553413342030787 2.3096777745072363 79.7948688198024
lradius 26.44835942676789
lwrist 7.694303365666562
lhand -27.361699539309132 19.890537352790243
lfingers 7.12502
lthumb -0.6172741355967732 50.2299234967134
rclavicle -3.6163629433217957e-16 5.803562888983659e-16
rhumerus -28.055038315223516 -15.850977589715688 -76.14481304904068
rradius 32.79737070571107
rwrist 1.2895059773943274
rhand -17.949526108634362 21.937617922873983
rfingers 7.12502
rthumb 8.628037098233227 -5.93875115499108
123
root 0.7582803147251165 17.96684286003405 34.215695129072195 -2.0622410199365384 -2.8863333749021036 -3.389864055591078
lfemur 2.0346725105587016 -2.0361621064902105 -18.023451300718754
ltibia 47.4901386764462
lfoot -14.376735244396635 -0.47152003888335114
ltoes -14.164155711311533
rfemur -6.206550442063776 5.470224140391396 27.467822237369717
rtibia 32.812142230784744
rfoot -19.326398499615664 -9.349575410110086
rtoes -5.734386650017343
lowerback 8.875426197046549 -0.20425349924032932 2.4552375463798093
upperback -0.1993355966478073 0.19175510845577326 1.9262881829961873
thorax -5.471198003893907 0.08839452845022144 1.378186915494085
lowerneck -16.247191362756567 -2.8840321068395465 -1.5484055981404268
upperneck 22.302911935651288 -3.6216560676249605 -0.06270306564597605
head 9.893125998375945 -1.7928631634020822 -0.2546268795064345
lclavicle -3.616362944237162e-16 5.803562888366887e-16
lhumerus -27.715501163586218 2.5569933797462934 79.87558915780495
lradius 26.103718428557563
lwrist 7.653799214710048
lhand -27.47690715063718 19.74981313624162
lfingers 7.12502
lthumb -0.7448054109480711 50.09310616345754
rclavicle -3.616362943260931e-16 5.803562889024029e-16
rhumerus -28.271886791037442 -15.923164197438654 -75.64878286965973
rradius 32.847785292904405
rwrist 1.1728041591247127
rhand -18.022392635455684 21.932841975033575
rfingers 7.12502
rthumb 8.43493458101451 -6.118484380051991
124
root 0.7989314529158169 17.968350299385225 34.521118334319944 -2.243472568311939 -2.666505969916648 -2.9725075225369486
lfemur 2.1584892638251514 -2.330776707754024 -18.599918703917446
ltibia 47.537435867246344
lfoot -14.520017521981533 -0.4841825584738144
ltoes -13.721577207190027
rfemur -5.837695078028017 5.376382118206092 27.132401652026072
rtibia 32.04929264447719
rfoot -19.024202621423413 -9.435596115370844
rtoes -5.898610155836928
lowerback 8.824360612409786 -0.25102546446352336 2.2555853023267334
upperback -0.2172521084333443 0.0817761661456814 1.8878728940920815
thorax -5.362080881918702 0.053533512309894005 1.427040185964311
lowerneck -16.196143706674622 -2.8775236244087337 -1.568853510624166
upperneck 22.332643534686163 -3.6120673099748237 -0.0509302733393695
head 9.89753999899471 -1.7913957857478882 -0.23759290610645736
lclavicle -3.616362944260538e-16 5.803562888353499e-16
lhumerus -28.572695265126075 2.1771713480898094 79.74032619479117
lradius 25.622726368891552
lwrist 7.704035272560093
lhand -27.714444707808063 19.48480979448238
lfingers 7.12502
lthumb -0.98319893339267 49.8330191533025
rclavicle -3.616362943251675e-16 5.803562889032086e-16
rhumerus -28.62590736744228 -16.15767654781824 -75.35213403213771
rradius 32.921327134575805
rwrist 1.419174023672829
rhand -18.092644011181225 21.795454698734837
rfingers 7.12502
rthumb 8.31605176290995 -6.502546859538625
